<svg width="18" height="18" viewBox="0 0 18 18" fill="none" xmlns="http://www.w3.org/2000/svg">
<path fill-rule="evenodd" clip-rule="evenodd" d="M12.5167 3.22329C11.8634 3.00948 10.9737 3.00003 9 3.00003C7.94137 3.00003 7.18496 3.00044 6.58885 3.04111C5.99948 3.08132 5.6218 3.15837 5.31493 3.28548C4.39608 3.66608 3.66605 4.39611 3.28545 5.31497C3.15834 5.62184 3.08129 5.99951 3.04108 6.58888C3.0004 7.18499 3 7.94141 3 9.00003C3 10.0587 3.0004 10.8151 3.04108 11.4112C3.08129 12.0006 3.15834 12.3783 3.28545 12.6851C3.66605 13.604 4.39608 14.334 5.31493 14.7146C5.6218 14.8417 5.99948 14.9187 6.58885 14.9589C7.18496 14.9997 7.94137 15 9 15C10.0586 15 10.8151 14.9997 11.4112 14.9589C12.0005 14.9187 12.3782 14.8417 12.6851 14.7146C13.604 14.334 14.3339 13.604 14.7146 12.6851C14.8417 12.3783 14.9187 12.0006 14.9589 11.4112C14.9996 10.8151 15 10.0587 15 9.00003C15 8.42568 15 7.93788 14.9931 7.5121C14.9864 7.09795 15.3168 6.7568 15.7309 6.75013C16.1451 6.74345 16.4863 7.07379 16.493 7.48795C16.5 7.92708 16.5 8.42651 16.5 8.99523V9.02763C16.5 10.0527 16.5 10.8601 16.4555 11.5133C16.41 12.1791 16.3158 12.739 16.1004 13.2591C15.5675 14.5455 14.5455 15.5676 13.2591 16.1004C12.739 16.3158 12.179 16.41 11.5133 16.4555C10.8601 16.5 10.0526 16.5 9.02767 16.5H8.97233C7.94738 16.5 7.13989 16.5 6.48675 16.4555C5.821 16.41 5.26102 16.3158 4.74091 16.1004C3.45451 15.5676 2.43248 14.5455 1.89963 13.2591C1.6842 12.739 1.58998 12.1791 1.54456 11.5133C1.49999 10.8601 1.5 10.0527 1.5 9.02763V8.97243C1.5 7.9474 1.49999 7.13992 1.54456 6.48677C1.58998 5.82104 1.6842 5.26104 1.89963 4.74094C2.43248 3.45455 3.45451 2.43251 4.74091 1.89966C5.26102 1.68422 5.821 1.59001 6.48674 1.54459C7.13989 1.50002 7.94737 1.50002 8.9724 1.50003H9C9.0543 1.50003 9.10808 1.50002 9.16125 1.50002C10.9235 1.49975 12.0724 1.49957 12.9833 1.79771C13.3769 1.92656 13.5917 2.35013 13.4628 2.7438C13.3339 3.13746 12.9103 3.35214 12.5167 3.22329ZM16.3978 3.74705C16.6065 4.10484 16.4857 4.56407 16.1278 4.77278L15.9616 4.86976C13.2655 6.44252 11.0992 8.78321 9.73965 11.5929C9.6339 11.8113 9.429 11.9652 9.18968 12.0057C8.95035 12.0462 8.70622 11.9684 8.53448 11.7968L5.52438 8.78988C5.23133 8.49716 5.23108 8.02233 5.52382 7.72923C5.81655 7.4362 6.29143 7.43594 6.58447 7.72871L8.87235 10.0142C10.369 7.34712 12.5533 5.12138 15.2058 3.57409L15.3721 3.47712C15.7298 3.26841 16.1891 3.38926 16.3978 3.74705Z" fill="#15294B" fill-opacity="0.4"/>
</svg>
