<svg width="22" height="20" viewBox="0 0 22 20" fill="none" xmlns="http://www.w3.org/2000/svg">
<g opacity="0.4">
<mask id="path-1-inside-1_986_7077" fill="white">
<path d="M5.60059 5.05029L0.650839 10L5.60059 14.9498L10.5503 10L5.60059 5.05029Z"/>
</mask>
<path d="M10.5503 10L11.9645 8.58583L13.3788 10L11.9645 11.4143L10.5503 10ZM4.18637 13.5356L9.13612 8.58583L11.9645 11.4143L7.0148 16.364L4.18637 13.5356ZM9.13612 11.4143L4.18637 6.46451L7.0148 3.63608L11.9645 8.58583L9.13612 11.4143Z" fill="#0A95C7" mask="url(#path-1-inside-1_986_7077)"/>
</g>
<g opacity="0.7">
<mask id="path-3-inside-2_986_7077" fill="white">
<path d="M10.5 5.05029L5.55025 10L10.5 14.9498L15.4497 10L10.5 5.05029Z"/>
</mask>
<path d="M15.4497 10L16.864 8.58583L18.2782 10L16.864 11.4143L15.4497 10ZM9.08579 13.5356L14.0355 8.58583L16.864 11.4143L11.9142 16.364L9.08579 13.5356ZM14.0355 11.4143L9.08579 6.46451L11.9142 3.63608L16.864 8.58583L14.0355 11.4143Z" fill="#0A95C7" mask="url(#path-3-inside-2_986_7077)"/>
</g>
<mask id="path-5-inside-3_986_7077" fill="white">
<path d="M15.3994 5.05029L10.4497 10L15.3994 14.9498L20.3492 10L15.3994 5.05029Z"/>
</mask>
<path d="M20.3492 10L21.7634 8.58583L23.1776 10L21.7634 11.4143L20.3492 10ZM13.9852 13.5356L18.9349 8.58583L21.7634 11.4143L16.8136 16.364L13.9852 13.5356ZM18.9349 11.4143L13.9852 6.46451L16.8136 3.63608L21.7634 8.58583L18.9349 11.4143Z" fill="#0A95C7" mask="url(#path-5-inside-3_986_7077)"/>
</svg>
