<svg width="24" height="24" viewBox="0 0 24 24" fill="none" xmlns="http://www.w3.org/2000/svg">
<g clip-path="url(#clip0_710_7087)">
<path d="M12 1C5.94274 1 1 5.94351 1 12C1 18.0573 5.94351 23 12 23C18.0573 23 23 18.0565 23 12C23 5.9427 18.0565 1 12 1ZM12 21.7109C6.64536 21.7109 2.28906 17.3546 2.28906 12C2.28906 6.64536 6.64536 2.28906 12 2.28906C17.3546 2.28906 21.7109 6.64536 21.7109 12C21.7109 17.3546 17.3546 21.7109 12 21.7109Z" fill="#526D9D"/>
<path d="M12 4.91016C10.9338 4.91016 10.0664 5.77757 10.0664 6.84375C10.0664 7.90993 10.9338 8.77734 12 8.77734C13.0662 8.77734 13.9336 7.90993 13.9336 6.84375C13.9336 5.77757 13.0662 4.91016 12 4.91016ZM12 7.48828C11.6446 7.48828 11.3555 7.19914 11.3555 6.84375C11.3555 6.48836 11.6446 6.19922 12 6.19922C12.3554 6.19922 12.6445 6.48836 12.6445 6.84375C12.6445 7.19914 12.3554 7.48828 12 7.48828Z" fill="#526D9D"/>
<path d="M12 10.0664C10.9338 10.0664 10.0664 10.9338 10.0664 12V17.1562C10.0664 18.2224 10.9338 19.0898 12 19.0898C13.0662 19.0898 13.9336 18.2224 13.9336 17.1562V12C13.9336 10.9338 13.0662 10.0664 12 10.0664ZM12.6445 17.1562C12.6445 17.5116 12.3554 17.8008 12 17.8008C11.6446 17.8008 11.3555 17.5116 11.3555 17.1562V12C11.3555 11.6446 11.6446 11.3555 12 11.3555C12.3554 11.3555 12.6445 11.6446 12.6445 12V17.1562Z" fill="#526D9D"/>
</g>
<defs>
<clipPath id="clip0_710_7087">
<rect width="22" height="22" fill="white" transform="translate(1 1)"/>
</clipPath>
</defs>
</svg>
