<svg width="18" height="18" viewBox="0 0 18 18" fill="none" xmlns="http://www.w3.org/2000/svg">
<path d="M13.9498 11.0502C13.1873 10.2878 12.2799 9.72343 11.2897 9.38177C12.3502 8.65139 13.0469 7.42905 13.0469 6.04688C13.0469 3.81543 11.2314 2 9 2C6.76856 2 4.95312 3.81543 4.95312 6.04688C4.95312 7.42905 5.64982 8.65139 6.71029 9.38177C5.72017 9.72343 4.81269 10.2878 4.05026 11.0502C2.72814 12.3724 2 14.1302 2 16H3.09375C3.09375 12.7433 5.74328 10.0938 9 10.0938C12.2567 10.0938 14.9062 12.7433 14.9062 16H16C16 14.1302 15.2719 12.3724 13.9498 11.0502ZM9 9C7.37165 9 6.04688 7.67525 6.04688 6.04688C6.04688 4.4185 7.37165 3.09375 9 3.09375C10.6283 3.09375 11.9531 4.4185 11.9531 6.04688C11.9531 7.67525 10.6283 9 9 9Z" fill="white"/>
</svg>
