<svg xmlns="http://www.w3.org/2000/svg" width="320" height="320" viewBox="0 0 320 320">
  <g id="franchise--square" transform="translate(3960 -12085)">
    <rect id="長方形_3442" data-name="長方形 3442" width="320" height="320" transform="translate(-3960 12085)" fill="#e6e9f0"/>
    <path id="パス_9270" data-name="パス 9270" d="M-91.472-32.075V-1.906h-3.644a3.169,3.169,0,0,1-1.356-.259,3.32,3.32,0,0,1-1.087-.9l-14.225-17.993q.083.808.114,1.563t.031,1.418V-1.906h-6.17V-32.075h3.686a5.94,5.94,0,0,1,.766.041,1.956,1.956,0,0,1,.559.155,1.865,1.865,0,0,1,.476.321,5.442,5.442,0,0,1,.518.559L-97.456-12.88q-.1-.87-.145-1.688t-.041-1.543V-32.075ZM-53.539-17a16.214,16.214,0,0,1-1.128,6.088,14.672,14.672,0,0,1-3.178,4.9,14.575,14.575,0,0,1-4.938,3.261,16.794,16.794,0,0,1-6.408,1.18,16.872,16.872,0,0,1-6.419-1.18A14.664,14.664,0,0,1-80.57-6.016a14.592,14.592,0,0,1-3.189-4.9A16.213,16.213,0,0,1-84.888-17a16.213,16.213,0,0,1,1.128-6.088,14.48,14.48,0,0,1,3.189-4.887,14.743,14.743,0,0,1,4.959-3.251,16.872,16.872,0,0,1,6.419-1.18,16.665,16.665,0,0,1,6.408,1.191,14.781,14.781,0,0,1,4.938,3.261,14.559,14.559,0,0,1,3.178,4.887A16.157,16.157,0,0,1-53.539-17ZM-60.7-17a13.044,13.044,0,0,0-.58-4.027,8.529,8.529,0,0,0-1.667-3.033,7.188,7.188,0,0,0-2.661-1.9,9.157,9.157,0,0,0-3.582-.663,9.292,9.292,0,0,0-3.613.663,7.17,7.17,0,0,0-2.671,1.9,8.529,8.529,0,0,0-1.667,3.033A13.044,13.044,0,0,0-77.723-17a13.117,13.117,0,0,0,.58,4.048,8.529,8.529,0,0,0,1.667,3.033,7.07,7.07,0,0,0,2.671,1.895,9.422,9.422,0,0,0,3.613.652,9.285,9.285,0,0,0,3.582-.652A7.087,7.087,0,0,0-62.95-9.919a8.529,8.529,0,0,0,1.667-3.033A13.118,13.118,0,0,0-60.7-17Zm32.86,15.095h-7.04V-32.075h7.04ZM14.4-32.075V-1.906H8.227V-19.258q0-.6.031-1.3t.114-1.429L.358-6.482a2.633,2.633,0,0,1-1,1.1,2.778,2.778,0,0,1-1.439.373h-.952a2.777,2.777,0,0,1-1.439-.373,2.633,2.633,0,0,1-1-1.1l-8.013-15.55q.062.745.1,1.46t.041,1.315V-1.906h-6.17V-32.075h5.342q.456,0,.8.021a2.04,2.04,0,0,1,.611.124,1.39,1.39,0,0,1,.487.321,2.531,2.531,0,0,1,.424.611l7.765,15.3q.414.787.8,1.636t.735,1.739q.352-.911.735-1.781t.818-1.656L6.736-31a2.531,2.531,0,0,1,.424-.611,1.39,1.39,0,0,1,.487-.321,2.04,2.04,0,0,1,.611-.124q.342-.021.8-.021ZM38.664-13.439l-2.8-8.262q-.311-.787-.663-1.853t-.7-2.309q-.311,1.263-.663,2.34t-.663,1.864L30.4-13.439ZM49.783-1.906H44.358a2.368,2.368,0,0,1-1.47-.424,2.7,2.7,0,0,1-.849-1.087L40.259-8.677H28.788L27.007-3.418a2.516,2.516,0,0,1-.818,1.046,2.283,2.283,0,0,1-1.46.466H19.263L30.941-32.075h7.164ZM68.15-17.539H78.875V-4.805a15.855,15.855,0,0,1-4.938,2.464,19.409,19.409,0,0,1-5.477.766,18.821,18.821,0,0,1-6.781-1.17,15.624,15.624,0,0,1-5.228-3.23A14.175,14.175,0,0,1,53.1-10.862,15.773,15.773,0,0,1,51.916-17a16.714,16.714,0,0,1,1.118-6.2,13.967,13.967,0,0,1,3.2-4.876,14.514,14.514,0,0,1,5.032-3.189,18.188,18.188,0,0,1,6.595-1.139A19.208,19.208,0,0,1,71.4-32.1a17.42,17.42,0,0,1,3.054.849,14.055,14.055,0,0,1,2.557,1.284,13.773,13.773,0,0,1,2.071,1.615l-2.029,3.085a1.948,1.948,0,0,1-1.232.89,2.174,2.174,0,0,1-1.625-.373q-.828-.5-1.563-.859a9.538,9.538,0,0,0-1.5-.59,9.838,9.838,0,0,0-1.615-.331,15.848,15.848,0,0,0-1.9-.1,8.69,8.69,0,0,0-3.541.694,7.592,7.592,0,0,0-2.681,1.957,8.85,8.85,0,0,0-1.708,3.033A12.227,12.227,0,0,0,59.08-17a12.7,12.7,0,0,0,.663,4.265,8.823,8.823,0,0,0,1.874,3.147,8.011,8.011,0,0,0,2.9,1.957,10.006,10.006,0,0,0,3.737.673,9.725,9.725,0,0,0,2.288-.248,12.791,12.791,0,0,0,2-.663v-4.576H69.558a1.448,1.448,0,0,1-1.035-.352,1.172,1.172,0,0,1-.373-.89ZM93.1-26.691v7.04h9.483v5.176H93.1V-7.29h12.382v5.384H86.06V-32.075h19.422v5.384Z" transform="translate(-3793.07 12262.906)" fill="#fff" opacity="0.5"/>
  </g>
</svg>
