<svg width="90" height="28" viewBox="0 0 90 28" fill="none" xmlns="http://www.w3.org/2000/svg">
<path d="M12.296 2.0343H8.11597V21.3268H12.296V2.0343Z" fill="#E5034F"/>
<path d="M72.5937 2.0343H68.4136V21.3268H72.5937V2.0343Z" fill="#FEF100"/>
<path d="M43.8074 13.932V9.75195H29.981V13.932H43.8074Z" fill="#8CC31F"/>
<path d="M2.00586 2.0343H7.47206V7.5005L2.00586 2.0343Z" fill="#02A0E4"/>
<path d="M51.1055 8.82131L54.0609 11.7767L63.8377 2H57.9298L51.1055 8.82131Z" fill="#02A0E4"/>
<path d="M63.7966 21.5114L51.1064 8.8219L48.1509 11.7774L57.8849 21.5114H63.7966Z" fill="#E5034F"/>
<path d="M82.0848 22.8475C80.5179 22.8457 79.0156 22.2225 77.9076 21.1145C76.7997 20.0065 76.1764 18.5043 76.1746 16.9374V13.6895C76.1746 13.2306 75.9924 12.7905 75.6679 12.4661C75.3434 12.1416 74.9034 11.9594 74.4446 11.9594C73.9857 11.9594 73.5457 12.1416 73.2212 12.4661C72.8968 12.7905 72.7145 13.2306 72.7145 13.6895H68.5337C68.5337 12.122 69.1564 10.6187 70.2647 9.51034C71.3731 8.40197 72.8764 7.7793 74.4438 7.7793C76.0113 7.7793 77.5146 8.40197 78.6229 9.51034C79.7313 10.6187 80.354 12.122 80.354 13.6895V16.9374C80.354 17.3962 80.5363 17.8363 80.8607 18.1607C81.1852 18.4852 81.6252 18.6675 82.084 18.6675C82.5429 18.6675 82.9829 18.4852 83.3074 18.1607C83.6318 17.8363 83.8141 17.3962 83.8141 16.9374V13.6235H87.9942V16.9374C87.9924 18.5042 87.3693 20.0063 86.2614 21.1142C85.1536 22.2222 83.6516 22.8455 82.0848 22.8475Z" fill="#8CC31F"/>
<path d="M16.2267 5.57898C13.8302 5.57976 11.5102 6.42283 9.67235 7.96076L9.60186 8.01925L2.00586 15.6153V21.5269L12.423 11.1097C13.1721 10.5006 14.0563 10.0804 15.0016 9.88418C15.9468 9.68798 16.9253 9.72158 17.8548 9.98222C18.7843 10.2429 19.6377 10.7229 20.3431 11.382C21.0485 12.041 21.5854 12.8598 21.9085 13.7695C22.2317 14.6791 22.3316 15.6531 22.2001 16.6095C22.0685 17.5658 21.7092 18.4766 21.1525 19.2652C20.5957 20.0539 19.8577 20.6972 19.0005 21.1413C18.1433 21.5854 17.1921 21.8171 16.2267 21.8171V26.0002C18.9344 26.0002 21.5312 24.9246 23.4458 23.0099C25.3605 21.0953 26.4362 18.4984 26.4362 15.7907C26.4362 13.083 25.3605 10.4862 23.4458 8.57153C21.5312 6.65689 18.9344 5.58127 16.2267 5.58127V5.57898Z" fill="#FEF100"/>
</svg>
